<svg xmlns="http://www.w3.org/2000/svg" width="564.979" height="367.015" viewBox="0 0 149.484 97.106"><path d="M33.191 44.871l-.641-.728.728.641c.68.6.849.814.641.814-.047 0-.375-.327-.728-.728zm9.28-9.956c0-.055.208-.263.463-.463.42-.329.429-.32.1.1-.346.441-.563.581-.563.363zm15.102-.584c.013-.308.075-.371.16-.16.076.191.067.419-.021.507s-.15-.068-.139-.347zM46.44 31.476c0-.055.208-.263.463-.463.42-.329.429-.32.1.1-.346.441-.563.581-.563.363zm35.297-19.81l-.504-.595.595.504c.559.474.716.687.504.687-.05 0-.318-.268-.595-.595zm-12.543.231c0-.055.208-.263.463-.463.42-.329.429-.32.1.1-.346.441-.563.581-.563.363z" fill="#d0d0d0"/><path d="M35.526 71.617c.182-.073.48-.073.661 0s.033.133-.331.133-.513-.06-.331-.133zm64.431-14.56c.257-.067.615-.063.794.01s-.031.127-.468.122-.583-.065-.326-.132zm9.933-4.76c.191-.076.419-.067.507.021s-.068.15-.347.139c-.308-.013-.371-.075-.16-.16zm7.987-3.623c0-.055.208-.263.463-.463.42-.329.429-.32.1.1-.346.441-.563.581-.563.363zM43.795 33.857c0-.055.208-.263.463-.463.42-.329.429-.32.1.1-.346.441-.563.581-.563.363zm28.946-5.986l.09-2.051v4.101c-.05 1.128-.09.205-.09-2.051zm29.262-6.747c.342-.364.681-.661.754-.661s-.147.298-.489.661-.681.661-.754.661.147-.298.489-.661zm-53.215-3.506c-.329-.42-.32-.429.1-.1.255.2.463.408.463.463 0 .218-.217.078-.563-.363zm62.955-1.834c.191-.076.419-.067.507.021s-.068.15-.347.139c-.308-.013-.371-.075-.16-.16z" fill="#b9b9b9"/><path d="M43.067 48.856c.255-.066.671-.066.926 0s.046.121-.463.121-.718-.054-.463-.121zm6.515-30.443c-.329-.42-.32-.429.1-.1.255.2.463.408.463.463 0 .218-.217.078-.563-.363z" fill="#a3a3a3"/><path d="M6.266 49.303c0-.364.06-.513.133-.331s.073.48 0 .661-.133.033-.133-.331z" fill="#8c8c8c"/><path d="M130.884 66.236c0-.364.06-.513.133-.331s.073.48 0 .661-.133.033-.133-.331zm-23.11-13.939c.191-.076.419-.067.507.021s-.068.15-.347.139c-.308-.013-.371-.075-.16-.16zm-74.447-7.558l-.777-.86.86.777c.802.724.982.943.777.943-.046 0-.432-.387-.86-.86zm42.024.412c.257-.067.615-.063.794.01s-.031.127-.468.122-.583-.065-.326-.132z" fill="#767676"/><path d="M117.349 48.955c0-.046.387-.432.86-.86l.86-.777-.777.86c-.724.802-.943.982-.943.777zm-72.545-.363c.191-.076.419-.067.507.021s-.068.15-.347.139c-.308-.013-.371-.075-.16-.16zM94.145 38.19c0-.8.05-1.128.11-.728a5.85 5.85 0 0 1 0 1.455c-.061.4-.11.073-.11-.728zm28.273.265c0-.364.06-.513.133-.331s.073.48 0 .661-.133.033-.133-.331zm-65.05-3.704c0-.8.05-1.128.11-.728s.061 1.055 0 1.455-.11.073-.11-.728zm-28.369.639c.013-.308.075-.371.16-.16.076.191.067.419-.021.507s-.15-.068-.139-.347zm32.544-7.144c.013-.308.075-.371.16-.16.076.191.067.419-.021.507s-.15-.068-.139-.347zm28.046 0c.013-.308.075-.371.16-.16.076.191.067.419-.021.507s-.15-.068-.139-.347zm12.547-6.989l1.435-1.323c.073 0-.454.595-1.171 1.323l-1.435 1.323c-.073 0 .454-.595 1.171-1.323zm-50.172.066c-.329-.42-.32-.429.1-.1.255.2.463.408.463.463 0 .218-.217.078-.563-.363zm-2.357-2.646l-1.446-1.521 1.521 1.446 1.521 1.521c0 .196-.253-.033-1.597-1.446zm-15.072-3.87c0-.055.208-.263.463-.463.42-.329.429-.32.1.1-.346.441-.563.581-.563.363zm4.167-2.192c.182-.073.48-.073.661 0s.033.133-.331.133-.513-.06-.331-.133z" fill="#606060"/><path d="M130.884 67.294c0-.364.06-.513.133-.331s.073.48 0 .661-.133.033-.133-.331zm0-2.117c0-.364.06-.513.133-.331s.073.48 0 .661-.133.033-.133-.331zm-25.491-8.118c.191-.076.419-.067.507.021s-.068.15-.347.139c-.308-.013-.371-.075-.16-.16zm-.537-5.257c-.832-.202-2.201-.718-3.043-1.148-1.559-.796-3.489-2.265-3.25-2.473.073-.063 1.204-.752 2.514-1.53l4.321-2.839c1.214-.891 3.243-1.98 5.424-2.911l7.528-3.554 4.204-2.067c.258 0-.169 4.351-.59 6.015-1.338 5.291-5.636 9.581-10.647 10.625-1.851.386-4.587.336-6.461-.118zm-98.59-3.558c0-.364.06-.513.133-.331s.073.48 0 .661-.133.033-.133-.331zm33.093-2.493c-1.834-2.885-2.765-4.59-3.6-6.592l-.423-1.016 1.385.819c2.873 1.698 8.389 4.26 11.794 5.479 4.017 1.438 3.989 1.325.704 2.898-1.95.934-4.659 1.496-6.749 1.401l-1.248-.057zm-3.728.624c-3.556-2.374-5.92-6.473-6.531-11.324-.201-1.594-.284-1.591 1.79-.076 1.05.767 1.311 1.161 1.93 2.91.82 2.319 2.997 6.785 4.113 8.44.417.618.657 1.124.533 1.124s-.95-.484-1.835-1.075zm60.96-.23c-.194-.314.032-.442 1.179-.667l.926-.182-.794.546c-.889.612-1.092.659-1.312.303zm-24.413-1.457c-4.774-1.157-8.53-4.829-10.028-9.806-.634-2.105-.64-6.983-.012-9.351.245-.923.378-1.786.296-1.918s-.023-.24.132-.24.28-.224.28-.498c0-.799 2.641-5.791 4.333-8.189 1.486-2.107 4.159-4.639 5.817-5.511.417-.219 1.369-.459 2.117-.534 2.995-.3 5.796 1.608 9.197 6.266 1.878 2.571 2.324 3.37 3.397 6.085.489 1.237.973 2.368 1.076 2.514s.275.741.381 1.323l.339 1.72c.358 1.633.175 6.767-.297 8.334-1.528 5.074-5.553 8.893-10.432 9.898-1.818.374-4.847.332-6.596-.091zm4.958-14.57c2.181-1.092 3.965-2.076 3.965-2.187 0-.175-7.996-4.294-8.337-4.294-.072 0-.13 1.905-.13 4.233 0 2.681.098 4.233.268 4.233.147 0 2.052-.894 4.233-1.986zM50.938 42.852c-5.261-1.784-11.082-4.506-14.274-6.675-.509-.346-1.474-.811-2.145-1.034-.948-.315-1.657-.882-3.182-2.547-2.371-2.587-2.35-2.557-2.355-3.479-.012-2.221 2.365-9.62 3.757-11.696 3.097-4.618 5.469-5.534 9.923-3.833 2.449.935 3.379 1.662 7.563 5.909 3.782 3.839 4.72 5.337 6.322 10.095.682 2.025.934 6.263.49 8.246-.343 1.533-1.251 3.793-1.523 3.793-.249 0-2.983-2.105-4.253-3.274l-1.133-1.043-.785.752c-.432.414-.785.825-.785.915 0 .193 3.298 2.951 4.987 4.17.655.473 1.081.851.946.841s-1.733-.524-3.552-1.14zm-3.992-11.449c.668-.604 1.147-1.167 1.065-1.251-.299-.307-9.075-2.026-9.283-1.818-.231.231 1.537 7.394 1.958 7.933.244.313 2.334-1.31 6.26-4.864zm47.776 10.643c-.603-2.229-.424-6.943.353-9.28 1.523-4.579 3.892-8.22 7.752-11.911 2.754-2.634 3.849-3.471 4.865-3.72.437-.107 1.047-.358 1.356-.558 1.577-1.021 4.478-.585 6.436.966.549.434 1.074.734 1.167.665s.12-.056.06.029.541 1.223 1.337 2.529c1.636 2.686 2.739 5.276 3.574 8.394.314 1.174.661 2.079.771 2.011.583-.361-.205 1.048-.956 1.707-1.136.998-9.644 5.201-12.95 6.398-.873.316-1.711.672-1.862.79-.398.312-4.433 1.775-6.601 2.393l-4.75 1.29c-.049 0-.297-.765-.55-1.7zm15.218-4.462c2.587-.711 4.101-1.254 4.101-1.469 0-.438-7.077-5.904-7.32-5.654-.205.212-1.544 6.915-1.544 7.731 0 .29.149.526.331.523s2.176-.511 4.432-1.132z" fill="#b60000"/><path d="M68.93 97.037l-3.829-.387c-3.52-.34-8.21-1.111-11.259-1.851l-2.256-.547-3.961.653c-6.776 1.118-6.475 1.102-6.475.341 0-.361-.072-.843-.16-1.072-.198-.515-.028-.571 2.938-.969 2.752-.37 2.971-.162-2.381-2.25-3.514-1.371-7.93-3.515-10.582-5.138-.952-.582-1.79-1.059-1.863-1.059s.116.488.42 1.084.515 1.112.468 1.146c-.773.567-1.456.945-1.71.945-.174 0-.997-1.366-1.827-3.035-1.394-2.801-1.66-3.16-3.461-4.649-2.735-2.262-5.678-5.263-7.922-8.078l-1.914-2.401-3.746-.479-3.746-.479.18-1.089c.099-.599.201-1.113.226-1.144s1.22.121 2.654.337 2.65.349 2.703.296-.437-1.157-1.089-2.453-1.617-3.727-2.146-5.4-1.042-3.206-1.14-3.406-1.648-.875-3.444-1.5S.226 53.2.088 53.063c-.158-.158-.102-.607.151-1.213l.402-.962 1.402.56c1.663.665 4.198 1.559 4.42 1.559.086 0 .122-1.905.078-4.233l-.079-4.234.608.004c1.703.01 1.665-.088 1.682 4.31.01 2.489.131 4.232.318 4.575.223.409.981.735 2.895 1.245 2.879.768 7.542 1.806 7.646 1.702.037-.037-.469-.78-1.124-1.652-3.341-4.446-6.335-10.246-8.425-16.32l-1.338-3.887-2.375 2.097c-3.643 3.217-3.486 3.135-4.238 2.215-.347-.424-.635-.841-.64-.926-.009-.15 5.767-5.18 6.391-5.566.237-.146.206-.758-.125-2.528-.562-3.003-1.058-7.69-.849-8.027.235-.38 1.982-.322 2.092.069.051.182.22 1.581.375 3.109s.416 3.398.579 4.155l.297 1.377 1.899-1.403c1.044-.772 3.09-2.156 4.545-3.076l2.88-1.875c.129-.111-.361-1.133-1.09-2.27-1.312-2.049-2.795-4.836-3.606-6.78l-.421-1.008.911-.381c1.135-.474 1.457-.479 1.457-.021 0 .553 2.662 5.66 3.895 7.473l1.099 1.615 4.971-2.475c2.734-1.361 5.117-2.475 5.296-2.475.208 0 .068.515-.391 1.437-.71 1.427-.741 1.45-4.485 3.339-2.074 1.046-3.77 1.994-3.77 2.107s1.054 1.316 2.341 2.674l2.341 2.47.426-.787.426-.787.015.794c.018.985-.014.936 2.367 3.535 1.324 1.444 2.272 2.241 2.91 2.446.521.167 1.904.877 3.074 1.577 4.409 2.64 10.226 5.256 14.599 6.565l2.381.745c.259.095-.124-.283-.851-.84-1.658-1.269-2.632-2.072-3.935-3.243l-1.025-.921.812-.812.812-.812 1.181 1.088c1.77 1.631 5.229 4.134 7.943 5.747l2.414 1.435 3.836.439c5.279.605 15.469.408 20.77-.401 6.312-.964 18.123-4.143 20.108-5.413.291-.186 1.244-.6 2.117-.919 1.872-.684 2.367-.909 8.015-3.636 4.692-2.265 6.067-3.312 5.734-4.362-.183-.576-.157-.57.437.11l.631.722 2.91-1.825c1.601-1.004 3.225-2.112 3.61-2.462.735-.668 2.304-5.104 3.283-9.284l.481-2.053.943.17c.519.093 1.021.213 1.116.267.222.125-.439 3.016-1.367 5.977-.401 1.278-.653 2.322-.56 2.321s1.478-1.004 3.078-2.227c2.752-2.104 2.937-2.201 3.398-1.786 1.263 1.135 1.225 1.191-2.794 4.154-5.426 4-5.332 3.917-5.732 5.047-.201.568-1.224 2.896-2.274 5.174-1.53 3.319-1.854 4.238-1.633 4.63.152.269.711 1.594 1.243 2.943l.967 2.454 2.486-1.898c1.367-1.044 3.59-2.863 4.938-4.042 2.817-2.462 2.755-2.148 1.116-5.652l-1.022-2.186 1.009-.515 1.009-.515 1.101 2.37c.606 1.303 1.137 2.37 1.18 2.37s.892-.952 1.886-2.117 1.877-2.116 1.962-2.115.508.284.94.63l.785.628-1.043 1.288c-.574.709-1.659 1.943-2.412 2.744l-1.369 1.455.492 1.927c.271 1.06.637 3.173.814 4.696s.405 2.769.506 2.769.883-.311 1.738-.69c2.866-1.273 2.695-1.263 3.147-.182.222.531.312 1.054.199 1.162s-1.334.662-2.714 1.232c-2.837 1.172-2.467.567-3.168 5.171-.351 2.305-1.33 5.867-2.119 7.706l-.52 1.212-.955-.455c-1.085-.517-1.085-.442.007-3.514.663-1.864 1.723-6.57 1.723-7.652 0-.458-.147-.443-2.315.234a117.48 117.48 0 0 1-4.696 1.338l-2.447.657c-.036.024.125 1.283.359 2.799s.501 5.153.595 8.081l.17 5.325 4.366-1.278c2.401-.703 4.561-1.283 4.799-1.29.292-.008.492.299.612.941.098.524.128 1.004.066 1.066-.1.1-4.517 1.415-8.671 2.581l-1.473.414-.331 2.847c-.182 1.566-.374 2.89-.427 2.943s-.591.013-1.195-.089c-.955-.161-1.08-.26-.957-.754.317-1.273.494-4.14.256-4.14-.137 0-2.505.536-5.262 1.192-8.513 2.024-19.998 4.138-25.99 4.785-.914.099-1.615.227-1.557.285.145.145 5.367 1.031 8.979 1.523 4.482.611 10.254 1.166 13.952 1.343 5.118.244 5.027.217 5.027 1.506v1.085l-3.373-.181c-10.193-.548-21.033-1.977-29.185-3.848l-3.462-.795-2.364 1.332c-3.46 1.95-9.987 5.064-13.458 6.419l-3.026 1.182 1.042.279c5.938 1.588 14.182 2.779 21.405 3.093l3.714.161 3.695-1.096c2.032-.603 4.918-1.574 6.412-2.158s2.822-.997 2.951-.917c.278.172.949 1.721.802 1.85-.251.221-5.111 2.029-7.509 2.794-5.17 1.648-11.538 2.987-17.729 3.727-2.404.287-14.823.559-16.536.361zm16.628-2.675c.736-.181.268-.298-2.778-.698-4.285-.563-8.856-1.484-12.893-2.6l-2.88-.796-4.264 1.204-5.004 1.377c-.407.096-.699.215-.649.265.169.169 5.063.961 8.135 1.318 3.312.384 18.7.332 20.332-.069zm-30.348-3.264c3.036-.689 6.221-1.527 7.635-2.007.225-.076-.635-.568-1.984-1.136-7.563-3.179-13.824-7.376-19.432-13.028l-3.141-3.165-4.853-.242-7.036-.413c-1.458-.115-2.183-.079-2.183.106 0 .584 1.576 6.336 2.132 7.782.56 1.456.692 1.586 3.393 3.344 5.39 3.509 10.601 5.971 17.494 8.265 2.11.702 3.973 1.281 4.139 1.286s1.893-.351 3.836-.793zm14.965-4.457a109.7 109.7 0 0 0 11.588-5.007l2.646-1.349-5.173-.013c-11.823-.031-21.617-1.494-31.075-4.642l-4.233-1.409 1.852 1.709c4.61 4.254 11.344 8.204 19.05 11.173 1.855.715 2.138.69 5.346-.462zm11.191-8.889c-.509-.2-2.652-.981-4.763-1.736s-5.719-2.243-8.019-3.306l-4.182-1.932-4.417.356c-2.429.196-6.913.443-9.963.549l-5.547.192 2.344.903c8.493 3.271 20.344 5.196 32.695 5.312 2.614.024 2.723.005 1.852-.337zm-58.32-1.615c-.206-.716-.573-2.215-.815-3.33l-.44-2.029-1.235-.145-2.649-.315c-1.371-.164-1.405-.153-1.119.38.345.644 6.399 6.973 6.538 6.834.052-.052-.075-.68-.281-1.396zm68.735-.278a109.22 109.22 0 0 0 9.689-7.193c2.258-1.899 10.099-9.621 9.936-9.784-.059-.059-1.746.576-3.749 1.41-9.818 4.09-23.166 7.69-34.838 9.395-2.058.301-3.781.585-3.827.631-.148.148 5.253 2.432 8.74 3.696 1.849.67 5.001 1.703 7.003 2.296l3.905 1.169c.146.051.308.102.361.113s1.303-.768 2.778-1.733zm10.147.54c7.408-.986 17.066-2.877 25.343-4.963l3.44-.867.198-1.836c.359-3.332-.588-14.407-1.231-14.401-.159.001-1.421.231-2.803.511s-3.883.698-5.556.93l-3.882.556c-.665.106-1.325.697-3.174 2.837-5.125 5.937-11.31 11.599-17.551 16.068l-3.043 2.179 1.72-.186c.946-.103 3.889-.475 6.54-.828zM34.27 69.316c0-.052-.685-.546-1.521-1.097-2.294-1.511-5.785-4.278-7.837-6.211l-1.831-1.725.176 2.514.332 4.149.156 1.636 1.625.167c.894.092 3.232.261 5.197.376l3.638.247c.036.021.066-.004.066-.056zm24.95-.382l1.534-.184-3.651-2.414c-2.008-1.328-4.555-3.14-5.661-4.026l-2.01-1.612-3.943.156c-3.973.158-12.169-.205-16.723-.741-1.353-.159-2.521-.229-2.594-.156-.238.238 4.973 4.426 7.965 6.403 5.158 3.407 3.622 3.094 14.288 2.914 5.093-.086 9.951-.239 10.795-.341zm-37.821-.983c-.085-.221-.23-2.321-.322-4.665l-.168-4.263-2.91-.602c-1.601-.331-4.097-.905-5.548-1.274s-2.679-.631-2.73-.58c-.212.212 1.599 5.051 2.697 7.208 2.043 4.012 1.886 3.872 4.714 4.211 3.748.449 4.45.443 4.267-.034zm47.41-.006c10.114-1.306 19.842-3.463 28.829-6.393 2.923-.953 10.692-3.859 11.448-4.283.234-.131-2.207-.23-5.786-.235-6.828-.009-10.653-.295-17.096-1.277l-4.291-.654-3.912 1.065c-6.954 1.893-13.447 3.12-20.83 3.936l-4.218.466 1.572 1.2c3.446 2.63 9.876 6.583 10.707 6.583.227 0 1.836-.184 3.576-.408zm-23.99-11.697c-2.954-3.009-4.667-5.122-6.92-8.533-2.13-3.224-4.059-6.957-5.072-9.814-.625-1.762-.874-2.129-2.025-2.988-.722-.539-1.46-1.036-1.641-1.106-.213-.082-.684.785-1.338 2.459-2.144 5.492-3.93 13.148-4.302 18.442-.161 2.291-.134 2.532.279 2.532.251 0 1.847.18 3.545.399 4.946.64 8.274.848 14.195.887l5.551.037zm10.618 1.768c7.906-.728 23.248-3.724 21.299-4.159-2.206-.492-8.698-2.83-12.358-4.45-2.431-1.076-4.601-1.956-4.821-1.956-.931 0-8.722-2.152-11.528-3.184-3.3-1.214-7.744-3.282-10.775-5.016l-1.912-1.093.421 1.009c2.197 5.266 6.139 10.887 11.328 16.156 3.366 3.418 2.729 3.212 8.347 2.694zm58.085-3.569l1.861-.185 2.143-2.943c2.322-3.189 5.308-7.866 6.572-10.294l.793-1.522-.879-1.649c-1.556-2.919-1.01-2.869-5.636-.52a157.71 157.71 0 0 1-7.544 3.556c-1.924.825-4.219 2.038-5.139 2.715-4.094 3.014-10.29 6.356-15.989 8.625-2.518 1.002-3.037 1.292-2.514 1.404 1.135.242 5.045.714 7.804.942 2.96.245 15.655.156 18.529-.129zm-91.543-5.541c.838-4.888 2.758-11.463 4.493-15.386l.657-1.485-2.835-2.942c-1.559-1.618-2.969-2.976-3.132-3.019-.289-.075-8.229 5.103-9.731 6.346l-.747.618 1.179 3.568c2.086 6.314 4.787 11.77 7.923 16.003l1.372 1.852.207-1.588c.114-.873.391-2.659.615-3.969zm104.366 3.743c3.067-.627 3.3-.851 2.594-2.497l-.345-.804-2.778 1.713-3.175 1.954c-.645.391.611.267 3.704-.365zm-40.967-1.204c5.564-2.046 13.444-5.676 13.09-6.03-.067-.067-.995.121-2.063.418-2.722.757-7.961 1.777-11.864 2.31-2.306.315-5.255.459-9.739.475-7.104.025-7.004-.037-2.432 1.51 2.054.695 8.632 2.531 9.304 2.597.097.009 1.764-.567 3.704-1.28zm38.916-2.152c2.001-1.222 3.638-2.318 3.638-2.437 0-.432-1.631-4.432-1.805-4.427-.099.003-.645.806-1.215 1.786a119.66 119.66 0 0 1-2.777 4.427l-1.842 2.881c-.13.3-.274.381 4.002-2.23zm9.707 1.581c1.101-.3 3.281-.965 4.846-1.477l2.844-.931v-1.663c0-1.786-.69-6.233-1.019-6.561-.11-.11-1.246.7-2.525 1.799a115.42 115.42 0 0 1-4.838 3.886c-2.379 1.788-2.504 1.931-2.353 2.684.307 1.534.703 2.809.873 2.809.094 0 1.072-.246 2.173-.546zm-5.396-19.243c-.085-.085-3.416 1.893-3.932 2.336-.119.102.173.821.65 1.596l.867 1.41 1.254-2.624c.69-1.443 1.212-2.666 1.16-2.718zm-34.936-4.237c-4.316-1.195-4.269-1.171-4.482-2.307-.1-.536-.113-1.043-.028-1.128.165-.165 6.939 1.634 8.094 2.149l.69.308-.55.928-.55.928zM54.94 25.451c-.131-.342-.654-1.237-1.161-1.988l-.922-1.366.826-.155c.455-.085 2.757-.324 5.116-.53s4.39-.438 4.513-.514.038.442-.188 1.152l-.412 1.29-3.307 1.176-3.767 1.367c-.336.139-.523.023-.698-.432zm70.55-5.931c-.196-.196-7.498-2.642-8.604-2.882-.996-.216-.984-.242-.454 1.027l.406.972-1.356-1.072c-.746-.589-1.519-1.072-1.719-1.072s-.599-.253-.887-.563c-.467-.501-4.037-1.487-7.784-2.149-.864-.153-.913-.202 1.649 1.662l1.96 1.426-.901.231c-.496.127-1.301.535-1.79.906l-.889.675-9.165.001-9.165.001-.495-.843c-.272-.464-.419-.919-.326-1.011.362-.362 7.446-.637 12.661-.492 3.02.084 5.49.108 5.49.053s-1.22-.909-2.71-1.899c-1.83-1.214-3.098-1.866-3.903-2.006-2.647-.46-8.562-1.034-12.305-1.194-3.722-.159-4.018-.211-4.763-.833a10.66 10.66 0 0 0-1.852-1.169l-1.058-.506 5.424.157c2.983.087 6.37.27 7.526.408s2.156.196 2.222.13-1.654-.971-3.822-2.011l-3.942-1.891-2.646.436c-2.661.438-10.541 2.283-11.774 2.757-.481.185-.156.217 1.191.119l1.852-.135-1.058.722c-.582.397-1.296.935-1.588 1.195s-1.057.56-1.701.665c-1.059.173-1.119.22-.621.491.547.297.545.306-.181 1.173l-.732.873-2.338-.968c-2.125-.88-2.483-.951-3.938-.789-2.474.276-8.39 1.401-12.078 2.298l-3.334.81-1.374-.785-1.374-.785 3.253-.864a163.68 163.68 0 0 1 6.692-1.592c1.892-.4 3.261-.799 3.043-.886-.476-.19-7.581-1.231-8.334-1.221-.291.004-1.643.996-3.004 2.205l-2.475 2.198-1.192-.42-1.192-.42 2.074-1.918 2.074-1.918h-2.037c-1.897 0-2.224.09-4.758 1.307-3.5 1.681-7.444 4.028-10.2 6.072-1.2.889-2.291 1.617-2.426 1.617s-.495-.351-.801-.781l-.556-.781 1.398-1.11c1.71-1.358 4.918-3.476 7.748-5.118L34.666 8.8l-1.587.158c-3.092.309-5.582.701-7.649 1.207-1.151.281-2.116.481-2.144.444s-.189-.477-.357-.976c-.37-1.095-.318-1.139 2.03-1.729 2.67-.671 6.837-1.182 11.092-1.362 3.829-.162 3.978-.19 7.348-1.431C48.721 3.153 55.786 1.331 60.362.736L61.716.56l.186.994c.223 1.191.068 1.32-1.847 1.545-2.767.325-12.376 2.687-13.593 3.341-.218.117.445.278 1.588.385 3.439.322 8.709 1.182 11.386 1.859 2.583.653 2.599.654 3.75.16 3.036-1.301 12.031-3.856 16.581-4.709l1.181-.221-2.437-1.022c-1.341-.562-2.437-1.061-2.437-1.109s.201-.509.447-1.024c.525-1.101.17-1.165 4.902.886l3.526 1.529 3.566-.468c4.136-.543 10.246-1.028 12.958-1.028h1.884l-.081 1.124-.081 1.124-4.498.181c-2.474.1-5.507.308-6.74.463l-2.646.295c-.222.007.43.435 1.448.95s3.355 1.759 5.192 2.763c3.278 1.793 3.418 1.841 7.541 2.602l5.325 1.032c.618.141 1.124.218 1.124.171s-.893-.824-1.984-1.727-1.98-1.715-1.975-1.804.294-.511.642-.937l.633-.774 1.012.751c.556.413 2.088 1.838 3.403 3.167 2.272 2.295 2.483 2.44 4.233 2.903 2.468.653 10.528 3.307 10.748 3.538.204.214-.536 2.168-.821 2.168-.106 0-.259-.067-.341-.149z" fill="#563200"/></svg>